<?xml version="1.0" standalone="no"?>
<!DOCTYPE svg PUBLIC "-//W3C//DTD SVG 20010904//EN"
 "http://www.w3.org/TR/2001/REC-SVG-20010904/DTD/svg10.dtd">
<svg version="1.0" xmlns="http://www.w3.org/2000/svg"
 width="568.000000pt" height="439.000000pt" viewBox="0 0 568.000000 439.000000"
 preserveAspectRatio="xMidYMid meet">

<g transform="translate(0.000000,439.000000) scale(0.100000,-0.100000)"
fill="#000000" stroke="none">
<path d="M1097 3574 c-4 -4 -7 -20 -7 -35 0 -30 -1 -30 90 -46 l45 -9 5 -499
c3 -275 6 -501 8 -503 1 -2 32 -2 70 0 l67 3 5 497 c3 273 8 499 12 503 4 4
30 9 59 11 61 4 81 18 77 53 l-3 26 -211 3 c-115 1 -213 -1 -217 -4z"/>
<path d="M1620 3570 c-13 -8 -15 -73 -15 -487 0 -516 1 -532 53 -570 94 -69
309 -71 396 -2 52 41 53 46 51 564 -1 265 -5 487 -9 494 -11 17 -120 11 -139
-8 -9 -9 -12 -125 -12 -492 l0 -481 -24 -19 c-33 -27 -111 -26 -137 2 -18 20
-19 44 -20 497 l-2 476 -22 18 c-24 19 -94 24 -120 8z"/>
<path d="M2252 3572 c-11 -7 -14 -94 -16 -418 -2 -225 -1 -470 3 -544 l6 -135
48 -3 c32 -2 57 2 73 13 21 14 24 23 24 83 0 37 -7 171 -16 297 -13 185 -14
236 -4 260 12 29 12 30 21 7 9 -24 36 -166 69 -367 24 -149 39 -233 46 -257 8
-26 77 -42 119 -28 47 15 43 1 105 400 41 260 53 311 74 290 7 -7 13 -109 16
-303 l5 -292 55 0 55 0 2 493 3 493 -28 10 c-15 6 -51 9 -81 6 -79 -6 -104
-38 -126 -165 -9 -54 -31 -182 -50 -287 -18 -104 -36 -211 -40 -237 -6 -49
-30 -82 -44 -60 -7 12 -28 114 -87 427 -58 303 -65 316 -160 322 -32 2 -65 0
-72 -5z"/>
<path d="M3153 3568 c-14 -17 -18 -42 -53 -323 -16 -132 -32 -250 -35 -261 -6
-26 -20 -121 -40 -273 -17 -127 -16 -131 42 -131 70 0 93 25 93 103 0 62 13
77 70 77 55 0 54 1 65 -92 7 -67 28 -88 85 -88 62 0 65 7 51 102 -45 316 -57
402 -100 729 -10 81 -22 152 -25 158 -10 16 -141 14 -153 -1z m97 -388 c18
-119 28 -313 17 -328 -6 -8 -25 -12 -46 -10 l-36 3 -3 57 c-3 61 24 354 35
371 10 16 20 -13 33 -93z"/>
<path d="M3576 3570 c-16 -5 -33 -15 -37 -22 -14 -22 -11 -1052 3 -1066 16
-16 120 -16 136 0 9 9 12 145 12 549 l0 537 -22 6 c-30 8 -56 6 -92 -4z"/>
<path d="M3860 3570 c-13 -8 -15 -81 -18 -541 -2 -389 1 -535 9 -545 14 -17
86 -19 125 -4 l27 11 -6 257 c-3 141 -2 266 3 277 7 17 11 12 33 -35 15 -30
37 -95 51 -145 34 -127 106 -348 115 -358 12 -12 86 -21 115 -13 l26 6 0 540
0 539 -21 12 c-29 15 -100 5 -116 -17 -10 -14 -13 -86 -13 -301 0 -175 -4
-283 -10 -283 -19 0 -22 9 -159 490 -21 76 -31 97 -51 107 -30 15 -89 17 -110
3z"/>
<path d="M4531 3568 c-15 -8 -28 -27 -33 -46 -5 -19 -8 -259 -6 -533 3 -431 5
-501 18 -510 17 -12 118 -5 132 9 9 9 12 1071 3 1080 -11 12 -93 11 -114 0z"/>
<path d="M2827 2533 c-4 -3 -7 -36 -7 -73 0 -38 -5 -71 -12 -78 -9 -9 -165
-12 -640 -12 l-628 0 0 -30 0 -30 403 -1 c221 0 503 0 626 0 142 0 230 -4 237
-10 10 -8 13 -74 14 -267 0 -165 4 -258 11 -262 5 -4 27 -6 47 -4 20 2 43 3
49 3 10 1 13 65 15 269 l3 267 33 3 c62 6 62 8 62 -299 0 -184 4 -280 11 -284
5 -4 21 -4 35 -1 l24 6 0 157 c0 180 12 193 35 37 26 -170 30 -187 48 -198 38
-24 50 2 72 157 31 216 43 213 47 -13 3 -144 3 -145 27 -148 13 -2 28 2 33 10
5 7 6 101 4 208 -3 107 -2 233 2 280 l7 85 485 2 c267 2 554 3 638 3 l153 0
-3 28 -3 27 -630 6 c-346 4 -651 10 -677 14 -45 7 -47 6 -62 -24 -9 -16 -21
-72 -26 -123 -6 -51 -15 -130 -20 -175 -16 -147 -47 -161 -61 -26 -32 314 -37
340 -75 349 -13 3 -37 3 -52 -1 -15 -4 -45 -8 -67 -9 l-40 -1 -3 75 c-2 44 -8
78 -15 82 -15 9 -91 10 -100 1z"/>
<path d="M1279 2392 l-36 -3 -6 -302 c-4 -167 -3 -316 1 -332 9 -33 48 -47 63
-23 5 7 9 64 9 125 0 127 -8 117 95 126 80 8 85 19 85 207 l0 159 -27 19 c-28
19 -113 31 -184 24z m120 -61 c18 -18 19 -30 14 -153 -3 -73 -10 -139 -16
-145 -12 -16 -59 -17 -75 -1 -8 8 -12 57 -12 153 0 96 4 145 12 153 18 18 56
14 77 -7z"/>
<path d="M2020 2203 c-28 -15 -36 -25 -38 -53 -5 -51 14 -106 51 -143 73 -73
88 -101 85 -159 -3 -49 -5 -53 -30 -56 -32 -4 -52 25 -42 62 6 27 -10 66 -29
66 -31 -1 -41 -19 -39 -72 3 -72 23 -88 107 -88 96 0 117 25 102 121 -6 36
-21 62 -65 115 -87 103 -102 190 -34 182 24 -3 27 -8 30 -48 4 -53 16 -70 48
-70 25 0 28 6 26 74 -1 52 -26 75 -88 82 -36 4 -58 0 -84 -13z"/>
<path d="M2320 2214 c-64 -23 -60 -8 -60 -225 0 -193 1 -198 22 -213 26 -19
115 -21 152 -5 32 15 36 40 36 239 0 150 -2 169 -19 184 -19 17 -104 30 -131
20z m75 -229 l0 -190 -23 -3 c-48 -7 -52 8 -52 185 0 181 6 206 48 201 l27 -3
0 -190z"/>
<path d="M3963 2206 c-32 -14 -33 -17 -33 -73 0 -61 19 -104 67 -152 38 -38
55 -84 51 -137 -3 -45 -5 -49 -28 -49 -23 0 -25 4 -30 55 -5 51 -7 55 -32 58
-28 3 -28 3 -28 -56 0 -76 16 -92 91 -92 79 1 94 16 92 91 -2 64 -22 107 -85
182 -27 32 -32 46 -33 90 0 49 1 52 25 52 23 0 25 -5 30 -49 5 -51 25 -74 54
-63 23 9 22 97 -2 127 -23 28 -94 36 -139 16z"/>
<path d="M1550 1990 c0 -195 2 -221 16 -227 35 -13 49 11 54 93 l5 79 40 0 40
0 5 -79 c5 -82 19 -106 54 -93 13 5 16 21 16 82 0 43 -5 84 -12 95 -10 16 -10
24 0 40 7 12 12 54 12 104 0 79 -2 86 -26 105 -23 18 -41 21 -115 21 l-89 0 0
-220z m141 180 c16 -9 19 -22 19 -95 0 -81 -1 -85 -24 -91 -14 -3 -34 -3 -45
1 -19 6 -21 14 -21 89 0 101 17 124 71 96z"/>
<path d="M1857 2203 c-10 -9 -8 -416 2 -431 4 -8 19 -12 32 -10 l24 3 3 223 2
222 -28 0 c-16 0 -32 -3 -35 -7z"/>
<path d="M2519 2203 c-1 -9 -1 -424 0 -436 1 -5 13 -7 29 -5 27 3 27 3 30 91
2 75 5 88 19 85 10 -2 21 -23 30 -53 7 -27 21 -67 30 -88 14 -32 21 -37 42
-35 l26 3 0 220 0 220 -30 0 -30 0 0 -102 c0 -162 -19 -154 -66 30 -6 23 -14
49 -18 57 -8 16 -60 27 -62 13z"/>
<path d="M3434 2197 c-2 -7 -3 -107 -2 -222 l3 -210 28 -3 27 -3 0 225 0 226
-25 0 c-14 0 -28 -6 -31 -13z"/>
<path d="M3550 1985 l0 -226 28 3 c27 3 27 4 32 92 3 49 10 91 15 93 6 2 24
-39 41 -89 28 -83 34 -93 57 -96 36 -4 38 8 35 243 l-3 200 -32 3 -33 3 0
-111 c0 -129 -12 -141 -42 -39 -40 137 -43 144 -71 147 l-27 3 0 -226z"/>
<path d="M3817 2203 c-10 -9 -8 -416 2 -431 4 -8 19 -12 32 -10 l24 3 3 223 2
222 -28 0 c-16 0 -32 -3 -35 -7z"/>
<path d="M4150 2195 c0 -8 6 -15 14 -15 8 0 18 -5 21 -10 4 -6 9 -97 11 -203
3 -105 9 -196 14 -200 4 -5 16 -7 26 -5 18 3 19 17 22 197 1 123 7 199 13 208
6 7 22 13 35 13 l24 0 0 -194 c0 -107 3 -201 6 -210 6 -17 39 -22 48 -8 3 5 6
41 8 80 2 84 7 95 39 90 22 -3 24 -8 29 -78 6 -84 13 -100 40 -100 18 0 19 11
19 210 0 206 0 210 -22 225 -33 21 -347 21 -347 0z m299 -29 c8 -9 11 -45 9
-98 -3 -82 -3 -83 -30 -86 -21 -3 -28 1 -29 15 -2 39 3 168 8 176 7 12 30 8
42 -7z"/>
<path d="M4553 2188 c3 -13 15 -63 27 -113 12 -49 25 -139 28 -200 l7 -110 30
0 30 0 6 110 c3 61 11 133 18 160 6 28 18 75 25 105 15 60 10 73 -25 68 -21
-3 -25 -10 -29 -55 -3 -28 -9 -55 -13 -59 -14 -14 -31 16 -37 64 -5 45 -7 47
-39 50 -31 3 -33 1 -28 -20z"/>
</g>
</svg>
